<svg data-v-0dd9719b="" version="1.0" xmlns="http://www.w3.org/2000/svg"
    xmlns:xlink="http://www.w3.org/1999/xlink" width="340" height="250"
    viewBox="0 0 340.000000 250.000000" preserveAspectRatio="xMidYMid meet"
    color-interpolation-filters="sRGB" style="margin: auto;">
    <rect data-v-0dd9719b="" x="0" y="0" width="100%" height="100%" fill="#FEFFFF" fill-opacity="1"
        class="background"></rect> <!---->
    <g data-v-0dd9719b="" fill="#333333" class="iconlettersvg-g iconlettersvg"
        transform="translate(108.33084106445312,97.83671602327377)">
        <g fill="#333333">
            <g class="tp-name" transform="translate(0,0)" fill="#333333">
                <g transform="scale(1)" fill="#333333">
                    <g transform="translate(0, 0)" fill="#333333">
                        <g class="name-imagesvg" fill="#333333">
                            <g fill="#333333">
                                <rect fill="#333333" fill-opacity="0" stroke-width="2px" x="0" y="0"
                                    width="48.7194449753439" height="40.170561146170904"
                                    class="image-rect"></rect>
                                <svg x="0" y="0" width="48.7194449753439"
                                    height="40.170561146170904" filtersec="colorsb5119065648"
                                    class="image-svg-svg primary" style="overflow: visible;"
                                    fill="#333333">
                                    <svg xmlns="http://www.w3.org/2000/svg"
                                        viewBox="0 0 127.2 104.88" fill="#333333">
                                        <title fill="#333333">资源 1</title>
                                        <path d="M44.05 32.36L0 104.73h29.82l29.06-47.79z"
                                            fill="#238BE8"></path>
                                        <path
                                            d="M97.39 104.88h29.81L63.68 0 48.84 24.42l42.41 70.27z"
                                            fill="#333333"></path>
                                    </svg>
                                </svg> <!---->
                            </g>
                        </g>
                    </g>
                    <g transform="translate(48.7194449753439, 0)" fill="#333333">
                        <g class="name-imagesvg" fill="#333333">
                            <g fill="#333333">
                                <rect fill="#333333" fill-opacity="0" stroke-width="2px" x="0" y="0"
                                    width="39.94331678888296" height="40.170561146170904"
                                    class="image-rect"></rect>
                                <svg x="0" y="0" width="39.94331678888296"
                                    height="40.170561146170904" filtersec="colorsb8566991745"
                                    class="image-svg-svg primary" style="overflow: visible;"
                                    fill="#333333">
                                    <svg xmlns="http://www.w3.org/2000/svg"
                                        viewBox="0 0 105.36 105.89" fill="#333333">
                                        <title fill="#333333">资源 9</title>
                                        <path
                                            d="M28.77 41.05a29.07 29.07 0 0 1 5.09-7 26.78 26.78 0 0 1 37.86-.21l.2.21a26 26 0 0 1 5.84 8.69l.6 1.2h27l-.6-2.55a53 53 0 0 0-93-21.71c-.81 1-1.59 2-2.32 3.09l-1 1.35 19.28 19.33z"
                                            fill="#238BE8"></path>
                                        <path
                                            d="M73.72 101.88a30.81 30.81 0 0 0 3.59-1.64A53.1 53.1 0 0 0 94.84 85.7a52.46 52.46 0 0 0 9.89-20.82l.6-2.55h-27l-.75.75a26.25 26.25 0 0 1-5.84 8.69 29.46 29.46 0 0 1-7 5.09 12.29 12.29 0 0 1-2.4 1 29.18 29.18 0 0 1-7.94 1.65 33.59 33.59 0 0 1-3.75-.15A26.3 26.3 0 0 1 26.22 55v-.75L4.05 32.06 3 35.21a54.53 54.53 0 0 0-3 17.68 53.19 53.19 0 0 0 53 53 54.32 54.32 0 0 0 20.72-4.01z"
                                            fill="#333333"></path>
                                    </svg>
                                </svg> <!---->
                            </g>
                        </g>
                    </g>
                    <g transform="translate(88.66276176422686, 0)" fill="#333333">
                        <g class="name-imagesvg" fill="#333333">
                            <g fill="#333333">
                                <rect fill="#333333" fill-opacity="0" stroke-width="2px" x="0" y="0"
                                    width="34.6755492661006" height="40.170561146170904"
                                    class="image-rect"></rect>
                                <svg x="0" y="0" width="34.6755492661006"
                                    height="40.170561146170904" filtersec="colorsb6220606060"
                                    class="image-svg-svg primary" style="overflow: visible;"
                                    fill="#333333">
                                    <svg xmlns="http://www.w3.org/2000/svg"
                                        viewBox="0 0 88.85 102.93" fill="#333333">
                                        <title fill="#333333">资源 16</title>
                                        <path d="M25.47 25.47h63.38V0H0v3l25.47 25.47z"
                                            fill="#238BE8"></path>
                                        <path
                                            d="M60.68 38.8H24.12L.15 14.68v88.25h25.47V64.28h35.06z"
                                            fill="#333333"></path>
                                    </svg>
                                </svg> <!---->
                            </g>
                        </g>
                    </g>
                </g>
            </g>
        </g>
        <g data-gra="path-slogan" fill-rule="" class="tp-slogan" fill="#333333"
            transform="translate(31.299158096313477,46.183528900146484)"><!----> <!---->
            <g transform="scale(1, 1)" fill="#333333">
                <g transform="scale(1)" fill="#333333">
                    <path
                        d="M0.62-3.94C0.62-3.30 0.71-2.72 0.89-2.21C1.06-1.71 1.31-1.28 1.62-0.93C1.93-0.58 2.30-0.32 2.74-0.13C3.17 0.05 3.64 0.14 4.16 0.14C4.69 0.14 5.17 0.06 5.59-0.11C6.01-0.29 6.34-0.50 6.60-0.77L6.60-4.08L4.02-4.08L4.02-3.25L5.69-3.25L5.69-1.20C5.53-1.06 5.32-0.94 5.07-0.86C4.82-0.77 4.55-0.73 4.27-0.73C3.85-0.73 3.47-0.81 3.15-0.96C2.83-1.11 2.55-1.33 2.33-1.61C2.11-1.89 1.95-2.23 1.83-2.62C1.71-3.02 1.66-3.46 1.66-3.96C1.66-4.45 1.72-4.89 1.84-5.28C1.97-5.67 2.14-6.01 2.36-6.28C2.59-6.56 2.86-6.77 3.18-6.92C3.50-7.07 3.86-7.14 4.26-7.14C4.66-7.14 4.99-7.07 5.25-6.93C5.51-6.79 5.74-6.62 5.94-6.41L6.50-7.04C6.27-7.28 5.97-7.51 5.61-7.71C5.25-7.91 4.79-8.02 4.25-8.02C3.72-8.02 3.24-7.92 2.80-7.73C2.36-7.55 1.97-7.28 1.65-6.92C1.33-6.57 1.07-6.14 0.89-5.64C0.71-5.14 0.62-4.57 0.62-3.94ZM8.48-7.87L8.48 0L13.14 0L13.14-0.85L9.48-0.85L9.48-3.71L12.47-3.71L12.47-4.56L9.48-4.56L9.48-7.03L13.02-7.03L13.02-7.87ZM14.81-7.87L14.81 0L15.76 0L15.76-4.12C15.76-4.53 15.74-4.95 15.71-5.36C15.69-5.77 15.66-6.18 15.62-6.58L15.67-6.58L16.52-4.96L19.38 0L20.41 0L20.41-7.87L19.46-7.87L19.46-3.80C19.46-3.39 19.48-2.97 19.51-2.54C19.53-2.11 19.56-1.70 19.58-1.30L19.54-1.30L18.68-2.93L15.84-7.87ZM22.57-7.87L22.57 0L27.23 0L27.23-0.85L23.57-0.85L23.57-3.71L26.56-3.71L26.56-4.56L23.57-4.56L23.57-7.03L27.11-7.03L27.11-7.87ZM29.89-4.14L29.89-7.07L31.21-7.07C31.83-7.07 32.30-6.96 32.63-6.76C32.96-6.55 33.12-6.18 33.12-5.66C33.12-5.15 32.96-4.77 32.63-4.52C32.30-4.27 31.83-4.14 31.21-4.14ZM33.22 0L34.34 0L32.35-3.43C32.89-3.57 33.32-3.82 33.64-4.19C33.96-4.56 34.12-5.05 34.12-5.66C34.12-6.07 34.05-6.42 33.91-6.70C33.78-6.98 33.59-7.20 33.34-7.38C33.10-7.56 32.81-7.68 32.47-7.76C32.13-7.83 31.76-7.87 31.36-7.87L28.90-7.87L28.90 0L29.89 0L29.89-3.32L31.32-3.32ZM39.10-3.20L36.73-3.20L37.10-4.40C37.25-4.84 37.38-5.28 37.51-5.72C37.64-6.15 37.76-6.60 37.88-7.06L37.93-7.06C38.06-6.60 38.19-6.15 38.32-5.72C38.44-5.28 38.58-4.84 38.72-4.40ZM39.35-2.40L40.09 0L41.16 0L38.50-7.87L37.37-7.87L34.70 0L35.72 0L36.48-2.40ZM43.43-7.03L43.43 0L44.44 0L44.44-7.03L46.81-7.03L46.81-7.87L41.05-7.87L41.05-7.03ZM50.84 0.14C51.34 0.14 51.79 0.05 52.21-0.14C52.62-0.34 52.97-0.61 53.27-0.97C53.57-1.32 53.81-1.75 53.97-2.26C54.13-2.77 54.22-3.34 54.22-3.97C54.22-4.60 54.13-5.16 53.97-5.66C53.81-6.16 53.57-6.58 53.27-6.93C52.97-7.28 52.62-7.55 52.21-7.73C51.79-7.92 51.34-8.02 50.84-8.02C50.35-8.02 49.89-7.92 49.48-7.74C49.07-7.56 48.72-7.29 48.42-6.94C48.12-6.59 47.89-6.17 47.73-5.67C47.57-5.17 47.48-4.60 47.48-3.97C47.48-3.34 47.57-2.77 47.73-2.26C47.89-1.75 48.12-1.32 48.42-0.97C48.72-0.61 49.07-0.34 49.48-0.14C49.89 0.05 50.35 0.14 50.84 0.14ZM50.84-0.73C50.49-0.73 50.17-0.81 49.89-0.96C49.61-1.11 49.36-1.33 49.16-1.61C48.95-1.90 48.80-2.24 48.68-2.63C48.57-3.03 48.52-3.48 48.52-3.97C48.52-4.46 48.57-4.90 48.68-5.29C48.80-5.68 48.95-6.02 49.16-6.29C49.36-6.56 49.61-6.77 49.89-6.92C50.17-7.07 50.49-7.14 50.84-7.14C51.20-7.14 51.51-7.07 51.80-6.92C52.08-6.77 52.33-6.56 52.53-6.29C52.73-6.02 52.89-5.68 53.00-5.29C53.12-4.90 53.17-4.46 53.17-3.97C53.17-3.48 53.12-3.03 53.00-2.63C52.89-2.24 52.73-1.90 52.53-1.61C52.33-1.33 52.08-1.11 51.80-0.96C51.51-0.81 51.20-0.73 50.84-0.73ZM56.90-4.14L56.90-7.07L58.22-7.07C58.84-7.07 59.31-6.96 59.64-6.76C59.97-6.55 60.13-6.18 60.13-5.66C60.13-5.15 59.97-4.77 59.64-4.52C59.31-4.27 58.84-4.14 58.22-4.14ZM60.23 0L61.36 0L59.36-3.43C59.90-3.57 60.33-3.82 60.65-4.19C60.97-4.56 61.13-5.05 61.13-5.66C61.13-6.07 61.06-6.42 60.92-6.70C60.79-6.98 60.60-7.20 60.35-7.38C60.11-7.56 59.82-7.68 59.48-7.76C59.14-7.83 58.77-7.87 58.37-7.87L55.91-7.87L55.91 0L56.90 0L56.90-3.32L58.33-3.32Z"
                        transform="translate(-0.624, 8.016)" fill="#333333"></path>
                </g>
            </g>
        </g>
    </g>
    <defs v-gra="od"></defs>
</svg>